<<<<<<< HEAD
<?xml version="1.0" encoding="iso-8859-1"?>
<!-- Uploaded to: SVG Repo, www.svgrepo.com, Generator: SVG Repo Mixer Tools -->
<svg fill="currentColor" height="800px" width="800px" version="1.1" id="Layer_1" xmlns="http://www.w3.org/2000/svg" xmlns:xlink="http://www.w3.org/1999/xlink" 
	 viewBox="0 0 320.002 320.002" xml:space="preserve">
<g id="XMLID_6_">
	<path id="XMLID_7_" d="M51.213,175.001h173.785c8.284,0,15-6.716,15-15c0-8.284-6.716-15-15-15H51.213l19.394-19.394
		c5.858-5.858,5.858-15.355,0-21.213c-5.857-5.858-15.355-5.858-21.213,0L4.396,149.393c-0.351,0.351-0.683,0.719-0.997,1.103
		c-0.137,0.167-0.256,0.344-0.385,0.515c-0.165,0.22-0.335,0.435-0.488,0.664c-0.14,0.209-0.261,0.426-0.389,0.64
		c-0.123,0.206-0.252,0.407-0.365,0.619c-0.118,0.22-0.217,0.446-0.323,0.67c-0.104,0.219-0.213,0.435-0.306,0.659
		c-0.09,0.219-0.164,0.442-0.243,0.664c-0.087,0.24-0.179,0.477-0.253,0.722c-0.067,0.222-0.116,0.447-0.172,0.672
		c-0.063,0.249-0.133,0.497-0.183,0.751c-0.051,0.259-0.082,0.521-0.119,0.782c-0.032,0.223-0.075,0.443-0.097,0.669
		c-0.048,0.484-0.073,0.971-0.074,1.457c0,0.007-0.001,0.015-0.001,0.022c0,0.007,0.001,0.015,0.001,0.022
		c0.001,0.487,0.026,0.973,0.074,1.458c0.022,0.223,0.064,0.44,0.095,0.661c0.038,0.264,0.069,0.528,0.121,0.79
		c0.05,0.252,0.119,0.496,0.182,0.743c0.057,0.227,0.107,0.456,0.175,0.681c0.073,0.241,0.164,0.474,0.248,0.71
		c0.081,0.226,0.155,0.453,0.247,0.675c0.091,0.22,0.198,0.431,0.3,0.646c0.108,0.229,0.21,0.46,0.33,0.685
		c0.11,0.205,0.235,0.4,0.354,0.599c0.131,0.221,0.256,0.444,0.4,0.659c0.146,0.219,0.309,0.424,0.466,0.635
		c0.136,0.181,0.262,0.368,0.407,0.544c0.299,0.364,0.616,0.713,0.947,1.048c0.016,0.016,0.029,0.034,0.045,0.05l45,45.001
		c2.93,2.929,6.768,4.394,10.607,4.394c3.838-0.001,7.678-1.465,10.606-4.393c5.858-5.858,5.858-15.355,0.001-21.213L51.213,175.001
		z"/>
	<path id="XMLID_8_" d="M305.002,25h-190c-8.284,0-15,6.716-15,15v60c0,8.284,6.716,15,15,15s15-6.716,15-15V55h160v210.001h-160
		v-45.001c0-8.284-6.716-15-15-15s-15,6.716-15,15v60.001c0,8.284,6.716,15,15,15h190c8.284,0,15-6.716,15-15V40
		C320.002,31.716,313.286,25,305.002,25z"/>
</g>
=======
<?xml version="1.0" encoding="utf-8"?><!-- Uploaded to: SVG Repo, www.svgrepo.com, Generator: SVG Repo Mixer Tools -->
<svg width="800px" height="800px" viewBox="0 0 24 24" fill="none" xmlns="http://www.w3.org/2000/svg">
<path d="M15 12L6 12M6 12L8 14M6 12L8 10" stroke="currentColor" stroke-width="1.5" stroke-linecap="round" stroke-linejoin="round"/>
<path d="M12 21.9827C10.4465 21.9359 9.51995 21.7626 8.87865 21.1213C8.11027 20.3529 8.01382 19.175 8.00171 17M16 21.9983C18.175 21.9862 19.3529 21.8897 20.1213 21.1213C21 20.2426 21 18.8284 21 16V14V10V8C21 5.17157 21 3.75736 20.1213 2.87868C19.2426 2 17.8284 2 15 2H14C11.1715 2 9.75733 2 8.87865 2.87868C8.11027 3.64706 8.01382 4.82497 8.00171 7" stroke="currentColor" stroke-width="1.5" stroke-linecap="round"/>
<path d="M3 9.5V14.5C3 16.857 3 18.0355 3.73223 18.7678C4.46447 19.5 5.64298 19.5 8 19.5M3.73223 5.23223C4.46447 4.5 5.64298 4.5 8 4.5" stroke="currentColor" stroke-width="1.5" stroke-linecap="round"/>
>>>>>>> 37d0d9d2818253c13d08c1c60d680368298ed1f0
</svg>